<svg width="72" height="73" viewBox="0 0 72 73" fill="none" xmlns="http://www.w3.org/2000/svg">
<path fill-rule="evenodd" clip-rule="evenodd" d="M55.8407 1.41841C56.6168 1.86646 57.1831 2.60446 57.415 3.47005C57.647 4.33563 57.5255 5.25789 57.0775 6.03396L40.1834 35.2954L69.4448 52.1894C70.2209 52.6375 70.7871 53.3755 71.0191 54.2411C71.251 55.1067 71.1296 56.0289 70.6815 56.805C70.2335 57.5811 69.4955 58.1473 68.6299 58.3793C67.7643 58.6112 66.842 58.4898 66.066 58.0417L36.8046 41.1476L19.9105 70.4091C19.4624 71.1851 18.7244 71.7514 17.8589 71.9833C16.9933 72.2153 16.071 72.0938 15.2949 71.6458C14.5189 71.1977 13.9526 70.4597 13.7207 69.5941C13.4887 68.7286 13.6102 67.8063 14.0582 67.0302L30.9523 37.7688L1.69088 20.8747C0.914824 20.4267 0.348539 19.6887 0.116607 18.8231C-0.115325 17.9575 0.00609398 17.0353 0.454153 16.2592C0.902212 15.4831 1.64021 14.9169 2.50579 14.6849C3.37138 14.453 4.29364 14.5744 5.0697 15.0225L34.3311 31.9165L51.2252 2.65514C51.6733 1.87908 52.4112 1.31279 53.2768 1.08086C54.1424 0.848929 55.0647 0.970346 55.8407 1.41841Z" fill="#0C0C0C"/>
</svg>
