<svg width="34" height="34" viewBox="0 0 34 34" fill="none" xmlns="http://www.w3.org/2000/svg">
<path fill-rule="evenodd" clip-rule="evenodd" d="M26.4444 0.497255C26.8079 0.707157 27.0732 1.05289 27.1819 1.45839C27.2905 1.86389 27.2336 2.29594 27.0237 2.6595L19.1094 16.3676L32.8175 24.282C33.181 24.4919 33.4463 24.8376 33.555 25.2431C33.6636 25.6486 33.6067 26.0807 33.3968 26.4442C33.1869 26.8078 32.8412 27.0731 32.4357 27.1817C32.0302 27.2904 31.5981 27.2335 31.2346 27.0236L17.5265 19.1092L9.6121 32.8173C9.40219 33.1809 9.05646 33.4462 8.65096 33.5548C8.24546 33.6635 7.81341 33.6066 7.44985 33.3967C7.08629 33.1868 6.821 32.8411 6.71234 32.4356C6.60369 32.0301 6.66057 31.598 6.87047 31.2345L14.7849 17.5264L1.07675 9.61198C0.713185 9.40207 0.447897 9.05635 0.339244 8.65085C0.23059 8.24535 0.287471 7.81329 0.497374 7.44973C0.707276 7.08617 1.05301 6.82088 1.45851 6.71223C1.86401 6.60357 2.29606 6.66045 2.65962 6.87036L16.3677 14.7847L24.2821 1.07663C24.492 0.713066 24.8377 0.447779 25.2432 0.339126C25.6487 0.230472 26.0808 0.287353 26.4444 0.497255V0.497255Z" fill="#0C0C0C"/>
</svg>
