<svg width="43" height="43" viewBox="0 0 43 43" fill="none" xmlns="http://www.w3.org/2000/svg">
<path fill-rule="evenodd" clip-rule="evenodd" d="M42.8104 27.3781C42.6856 27.8441 42.3808 28.2413 41.963 28.4825C41.5453 28.7236 41.0489 28.789 40.583 28.6642L23.0157 23.957L18.3085 41.5243C18.1837 41.9902 17.8789 42.3875 17.4611 42.6286C17.0434 42.8698 16.547 42.9352 16.0811 42.8103C15.6151 42.6855 15.2179 42.3807 14.9767 41.963C14.7356 41.5452 14.6702 41.0488 14.795 40.5829L19.5022 23.0156L1.93488 18.3084C1.46897 18.1836 1.07172 17.8788 0.830549 17.461C0.589375 17.0433 0.52402 16.5469 0.648861 16.081C0.773703 15.6151 1.07851 15.2178 1.49624 14.9767C1.91397 14.7355 2.41039 14.6701 2.87631 14.795L20.4436 19.5021L25.1508 1.9348C25.2756 1.46889 25.5804 1.07165 25.9981 0.830476C26.4159 0.589301 26.9123 0.523946 27.3782 0.648787C27.8441 0.773628 28.2414 1.07844 28.4825 1.49617C28.7237 1.91389 28.7891 2.41032 28.6642 2.87623L23.9571 20.4435L41.5244 25.1507C41.9903 25.2755 42.3875 25.5803 42.6287 25.9981C42.8699 26.4158 42.9352 26.9122 42.8104 27.3781Z" fill="#0C0C0C"/>
</svg>
