<svg width="27" height="27" viewBox="0 0 27 27" fill="none" xmlns="http://www.w3.org/2000/svg">
<path fill-rule="evenodd" clip-rule="evenodd" d="M26.8496 17.1013C26.772 17.3909 26.5826 17.6377 26.323 17.7876C26.0634 17.9375 25.7549 17.9781 25.4653 17.9005L14.5482 14.9753L11.6229 25.8924C11.5453 26.182 11.3559 26.4288 11.0963 26.5787C10.8367 26.7286 10.5282 26.7692 10.2387 26.6916C9.94914 26.614 9.70228 26.4246 9.5524 26.165C9.40252 25.9054 9.36191 25.5969 9.43949 25.3074L12.3647 14.3902L1.44757 11.465C1.15803 11.3874 0.911167 11.198 0.76129 10.9384C0.611412 10.6788 0.570798 10.3703 0.64838 10.0807C0.725963 9.7912 0.915386 9.54434 1.17498 9.39446C1.43458 9.24458 1.74308 9.20397 2.03262 9.28155L12.9498 12.2068L15.875 1.28963C15.9526 1.00009 16.142 0.753226 16.4016 0.603349C16.6612 0.453471 16.9697 0.412856 17.2593 0.490439C17.5488 0.568021 17.7957 0.757446 17.9455 1.01704C18.0954 1.27664 18.136 1.58514 18.0585 1.87468L15.1332 12.7918L26.0504 15.7171C26.3399 15.7947 26.5868 15.9841 26.7367 16.2437C26.8865 16.5033 26.9272 16.8118 26.8496 17.1013Z" fill="#0C0C0C"/>
</svg>
